<svg id="visual" viewBox="0 0 900 600" width="900" height="600" xmlns="http://www.w3.org/2000/svg" xmlns:xlink="http://www.w3.org/1999/xlink" version="1.1"><g fill="#498aec"><circle r="22" cx="889" cy="291"></circle><circle r="3" cx="37" cy="492"></circle><circle r="19" cx="337" cy="590"></circle><circle r="14" cx="467" cy="537"></circle><circle r="7" cx="347" cy="283"></circle><circle r="12" cx="702" cy="408"></circle><circle r="11" cx="18" cy="547"></circle><circle r="16" cx="884" cy="71"></circle><circle r="20" cx="303" cy="158"></circle><circle r="18" cx="780" cy="341"></circle><circle r="13" cx="27" cy="129"></circle><circle r="6" cx="112" cy="6"></circle><circle r="9" cx="481" cy="214"></circle><circle r="8" cx="513" cy="89"></circle><circle r="15" cx="39" cy="423"></circle><circle r="16" cx="135" cy="94"></circle><circle r="11" cx="453" cy="18"></circle><circle r="10" cx="47" cy="368"></circle><circle r="5" cx="239" cy="258"></circle><circle r="13" cx="539" cy="506"></circle><circle r="14" cx="353" cy="547"></circle><circle r="14" cx="854" cy="264"></circle><circle r="15" cx="635" cy="120"></circle><circle r="4" cx="607" cy="307"></circle><circle r="9" cx="175" cy="130"></circle><circle r="17" cx="769" cy="414"></circle><circle r="10" cx="25" cy="275"></circle><circle r="17" cx="222" cy="57"></circle><circle r="14" cx="838" cy="58"></circle><circle r="5" cx="344" cy="118"></circle><circle r="16" cx="770" cy="208"></circle><circle r="7" cx="153" cy="240"></circle><circle r="17" cx="876" cy="391"></circle><circle r="9" cx="81" cy="513"></circle><circle r="11" cx="678" cy="80"></circle><circle r="11" cx="824" cy="152"></circle><circle r="6" cx="263" cy="509"></circle><circle r="12" cx="136" cy="370"></circle><circle r="4" cx="621" cy="217"></circle><circle r="11" cx="661" cy="27"></circle><circle r="3" cx="704" cy="238"></circle><circle r="12" cx="570" cy="331"></circle><circle r="9" cx="880" cy="559"></circle><circle r="17" cx="162" cy="436"></circle><circle r="15" cx="137" cy="327"></circle><circle r="20" cx="530" cy="176"></circle><circle r="11" cx="824" cy="562"></circle><circle r="5" cx="108" cy="263"></circle><circle r="2" cx="770" cy="46"></circle><circle r="9" cx="587" cy="38"></circle><circle r="18" cx="709" cy="118"></circle><circle r="4" cx="105" cy="199"></circle><circle r="2" cx="127" cy="145"></circle><circle r="12" cx="198" cy="502"></circle><circle r="7" cx="351" cy="429"></circle><circle r="10" cx="878" cy="152"></circle><circle r="14" cx="582" cy="266"></circle><circle r="10" cx="463" cy="424"></circle></g></svg>