<svg id="visual" viewBox="0 0 900 600" width="900" height="600" xmlns="http://www.w3.org/2000/svg" xmlns:xlink="http://www.w3.org/1999/xlink" version="1.1"><rect x="0" y="0" width="900" height="600" fill="#FFFFFF"></rect><defs><linearGradient id="grad1_0" x1="33.3%" y1="0%" x2="100%" y2="100%"><stop offset="20%" stop-color="#0066ff" stop-opacity="1"></stop><stop offset="80%" stop-color="#0066ff" stop-opacity="1"></stop></linearGradient></defs><defs><linearGradient id="grad1_1" x1="33.3%" y1="0%" x2="100%" y2="100%"><stop offset="20%" stop-color="#0066ff" stop-opacity="1"></stop><stop offset="80%" stop-color="#7789ff" stop-opacity="1"></stop></linearGradient></defs><defs><linearGradient id="grad1_2" x1="33.3%" y1="0%" x2="100%" y2="100%"><stop offset="20%" stop-color="#acafff" stop-opacity="1"></stop><stop offset="80%" stop-color="#7789ff" stop-opacity="1"></stop></linearGradient></defs><defs><linearGradient id="grad1_3" x1="33.3%" y1="0%" x2="100%" y2="100%"><stop offset="20%" stop-color="#acafff" stop-opacity="1"></stop><stop offset="80%" stop-color="#d7d6ff" stop-opacity="1"></stop></linearGradient></defs><defs><linearGradient id="grad1_4" x1="33.3%" y1="0%" x2="100%" y2="100%"><stop offset="20%" stop-color="#ffffff" stop-opacity="1"></stop><stop offset="80%" stop-color="#d7d6ff" stop-opacity="1"></stop></linearGradient></defs><defs><linearGradient id="grad2_0" x1="0%" y1="0%" x2="66.7%" y2="100%"><stop offset="20%" stop-color="#0066ff" stop-opacity="1"></stop><stop offset="80%" stop-color="#0066ff" stop-opacity="1"></stop></linearGradient></defs><defs><linearGradient id="grad2_1" x1="0%" y1="0%" x2="66.7%" y2="100%"><stop offset="20%" stop-color="#7789ff" stop-opacity="1"></stop><stop offset="80%" stop-color="#0066ff" stop-opacity="1"></stop></linearGradient></defs><defs><linearGradient id="grad2_2" x1="0%" y1="0%" x2="66.7%" y2="100%"><stop offset="20%" stop-color="#7789ff" stop-opacity="1"></stop><stop offset="80%" stop-color="#acafff" stop-opacity="1"></stop></linearGradient></defs><defs><linearGradient id="grad2_3" x1="0%" y1="0%" x2="66.7%" y2="100%"><stop offset="20%" stop-color="#d7d6ff" stop-opacity="1"></stop><stop offset="80%" stop-color="#acafff" stop-opacity="1"></stop></linearGradient></defs><defs><linearGradient id="grad2_4" x1="0%" y1="0%" x2="66.7%" y2="100%"><stop offset="20%" stop-color="#d7d6ff" stop-opacity="1"></stop><stop offset="80%" stop-color="#ffffff" stop-opacity="1"></stop></linearGradient></defs><g transform="translate(900, 0)"><path d="M0 243.4C-20.3 230.6 -40.5 217.9 -54.4 202.8C-68.2 187.8 -75.5 170.4 -97.5 168.9C-119.5 167.4 -156.1 181.8 -172.1 172.1C-188.1 162.4 -183.6 128.5 -181 104.5C-178.4 80.5 -177.6 66.3 -188.4 50.5C-199.1 34.7 -221.2 17.3 -243.4 0L0 0Z" fill="#eceaff"></path><path d="M0 194.7C-16.2 184.5 -32.4 174.3 -43.5 162.3C-54.5 150.2 -60.4 136.3 -78 135.1C-95.6 133.9 -124.8 145.4 -137.7 137.7C-150.5 129.9 -146.9 102.8 -144.8 83.6C-142.7 64.4 -142.1 53 -150.7 40.4C-159.3 27.8 -177 13.9 -194.7 0L0 0Z" fill="#c2c2ff"></path><path d="M0 146C-12.2 138.4 -24.3 130.7 -32.6 121.7C-40.9 112.7 -45.3 102.2 -58.5 101.3C-71.7 100.4 -93.6 109.1 -103.3 103.3C-112.9 97.4 -110.2 77.1 -108.6 62.7C-107 48.3 -106.6 39.8 -113 30.3C-119.4 20.8 -132.7 10.4 -146 0L0 0Z" fill="#939cff"></path><path d="M0 97.3C-8.1 92.3 -16.2 87.2 -21.7 81.1C-27.3 75.1 -30.2 68.1 -39 67.5C-47.8 67 -62.4 72.7 -68.8 68.8C-75.3 65 -73.4 51.4 -72.4 41.8C-71.4 32.2 -71.1 26.5 -75.3 20.2C-79.6 13.9 -88.5 6.9 -97.3 0L0 0Z" fill="#5477ff"></path><path d="M0 48.7C-4.1 46.1 -8.1 43.6 -10.9 40.6C-13.6 37.6 -15.1 34.1 -19.5 33.8C-23.9 33.5 -31.2 36.4 -34.4 34.4C-37.6 32.5 -36.7 25.7 -36.2 20.9C-35.7 16.1 -35.5 13.3 -37.7 10.1C-39.8 6.9 -44.2 3.5 -48.7 0L0 0Z" fill="#0066ff"></path></g><g transform="translate(0, 600)"><path d="M0 -243.4C15.3 -220 30.6 -196.6 51.5 -192.2C72.4 -187.8 98.9 -202.3 113 -195.7C127.1 -189.1 128.8 -161.5 148.5 -148.5C168.1 -135.5 205.7 -137.2 210.8 -121.7C215.8 -106.2 188.3 -73.6 188.4 -50.5C188.4 -27.3 215.9 -13.7 243.4 0L0 0Z" fill="#eceaff"></path><path d="M0 -194.7C12.2 -176 24.5 -157.3 41.2 -153.8C57.9 -150.2 79.1 -161.8 90.4 -156.6C101.7 -151.3 103.1 -129.2 118.8 -118.8C134.5 -108.4 164.6 -109.7 168.6 -97.3C172.7 -85 150.7 -58.9 150.7 -40.4C150.7 -21.9 172.7 -10.9 194.7 0L0 0Z" fill="#c2c2ff"></path><path d="M0 -146C9.2 -132 18.4 -118 30.9 -115.3C43.4 -112.7 59.3 -121.4 67.8 -117.4C76.3 -113.5 77.3 -96.9 89.1 -89.1C100.9 -81.3 123.4 -82.3 126.5 -73C129.5 -63.7 113 -44.2 113 -30.3C113 -16.4 129.5 -8.2 146 0L0 0Z" fill="#939cff"></path><path d="M0 -97.3C6.1 -88 12.2 -78.7 20.6 -76.9C29 -75.1 39.6 -80.9 45.2 -78.3C50.8 -75.7 51.5 -64.6 59.4 -59.4C67.3 -54.2 82.3 -54.9 84.3 -48.7C86.3 -42.5 75.3 -29.4 75.3 -20.2C75.3 -10.9 86.3 -5.5 97.3 0L0 0Z" fill="#5477ff"></path><path d="M0 -48.7C3.1 -44 6.1 -39.3 10.3 -38.4C14.5 -37.6 19.8 -40.5 22.6 -39.1C25.4 -37.8 25.8 -32.3 29.7 -29.7C33.6 -27.1 41.1 -27.4 42.2 -24.3C43.2 -21.2 37.7 -14.7 37.7 -10.1C37.7 -5.5 43.2 -2.7 48.7 0L0 0Z" fill="#0066ff"></path></g></svg>