<svg id="visual" viewBox="0 0 900 600" width="900" height="600" xmlns="http://www.w3.org/2000/svg" xmlns:xlink="http://www.w3.org/1999/xlink" version="1.1"><path d="M0 470L15 478.5C30 487 60 504 90 501.3C120 498.7 150 476.3 180 480.8C210 485.3 240 516.7 270 515.3C300 514 330 480 360 466.5C390 453 420 460 450 471.8C480 483.7 510 500.3 540 508.2C570 516 600 515 630 516.5C660 518 690 522 720 513.5C750 505 780 484 810 481C840 478 870 493 885 500.5L900 508L900 601L885 601C870 601 840 601 810 601C780 601 750 601 720 601C690 601 660 601 630 601C600 601 570 601 540 601C510 601 480 601 450 601C420 601 390 601 360 601C330 601 300 601 270 601C240 601 210 601 180 601C150 601 120 601 90 601C60 601 30 601 15 601L0 601Z" fill="#4facf7"></path><path d="M0 507L15 505C30 503 60 499 90 495.7C120 492.3 150 489.7 180 486.3C210 483 240 479 270 487.7C300 496.3 330 517.7 360 524.2C390 530.7 420 522.3 450 510.3C480 498.3 510 482.7 540 474.5C570 466.3 600 465.7 630 469C660 472.3 690 479.7 720 481.5C750 483.3 780 479.7 810 483.2C840 486.7 870 497.3 885 502.7L900 508L900 601L885 601C870 601 840 601 810 601C780 601 750 601 720 601C690 601 660 601 630 601C600 601 570 601 540 601C510 601 480 601 450 601C420 601 390 601 360 601C330 601 300 601 270 601C240 601 210 601 180 601C150 601 120 601 90 601C60 601 30 601 15 601L0 601Z" fill="#008cff"></path><path d="M0 511L15 516.7C30 522.3 60 533.7 90 536C120 538.3 150 531.7 180 534.8C210 538 240 551 270 546.7C300 542.3 330 520.7 360 518C390 515.3 420 531.7 450 542.3C480 553 510 558 540 554.8C570 551.7 600 540.3 630 528.8C660 517.3 690 505.7 720 507.7C750 509.7 780 525.3 810 532.2C840 539 870 537 885 536L900 535L900 601L885 601C870 601 840 601 810 601C780 601 750 601 720 601C690 601 660 601 630 601C600 601 570 601 540 601C510 601 480 601 450 601C420 601 390 601 360 601C330 601 300 601 270 601C240 601 210 601 180 601C150 601 120 601 90 601C60 601 30 601 15 601L0 601Z" fill="#0066ff"></path><path d="M0 515L15 520.7C30 526.3 60 537.7 90 541.8C120 546 150 543 180 544.7C210 546.3 240 552.7 270 555C300 557.3 330 555.7 360 556.7C390 557.7 420 561.3 450 556.5C480 551.7 510 538.3 540 534.5C570 530.7 600 536.3 630 538.2C660 540 690 538 720 540.8C750 543.7 780 551.3 810 556.3C840 561.3 870 563.7 885 564.8L900 566L900 601L885 601C870 601 840 601 810 601C780 601 750 601 720 601C690 601 660 601 630 601C600 601 570 601 540 601C510 601 480 601 450 601C420 601 390 601 360 601C330 601 300 601 270 601C240 601 210 601 180 601C150 601 120 601 90 601C60 601 30 601 15 601L0 601Z" fill="#0066ff"></path><path d="M0 543L15 547.2C30 551.3 60 559.7 90 561.3C120 563 150 558 180 555C210 552 240 551 270 548C300 545 330 540 360 537.7C390 535.3 420 535.7 450 538.5C480 541.3 510 546.7 540 554.3C570 562 600 572 630 576.7C660 581.3 690 580.7 720 578.7C750 576.7 780 573.3 810 569.2C840 565 870 560 885 557.5L900 555L900 601L885 601C870 601 840 601 810 601C780 601 750 601 720 601C690 601 660 601 630 601C600 601 570 601 540 601C510 601 480 601 450 601C420 601 390 601 360 601C330 601 300 601 270 601C240 601 210 601 180 601C150 601 120 601 90 601C60 601 30 601 15 601L0 601Z" fill="#008cff"></path><path d="M0 587L15 584.8C30 582.7 60 578.3 90 574.2C120 570 150 566 180 564C210 562 240 562 270 561.8C300 561.7 330 561.3 360 561.3C390 561.3 420 561.7 450 565.2C480 568.7 510 575.3 540 574.8C570 574.3 600 566.7 630 566.3C660 566 690 573 720 573.2C750 573.3 780 566.7 810 565.5C840 564.3 870 568.7 885 570.8L900 573L900 601L885 601C870 601 840 601 810 601C780 601 750 601 720 601C690 601 660 601 630 601C600 601 570 601 540 601C510 601 480 601 450 601C420 601 390 601 360 601C330 601 300 601 270 601C240 601 210 601 180 601C150 601 120 601 90 601C60 601 30 601 15 601L0 601Z" fill="#4facf7"></path></svg>