<?xml version="1.0" standalone="no"?><svg xmlns="http://www.w3.org/2000/svg" viewBox="0 0 1440 320"><path fill="#0d6efd" fill-opacity="1" d="M0,192L34.3,213.3C68.6,235,137,277,206,298.7C274.3,320,343,320,411,304C480,288,549,256,617,213.3C685.7,171,754,117,823,117.3C891.4,117,960,171,1029,202.7C1097.1,235,1166,245,1234,234.7C1302.9,224,1371,192,1406,176L1440,160L1440,0L1405.7,0C1371.4,0,1303,0,1234,0C1165.7,0,1097,0,1029,0C960,0,891,0,823,0C754.3,0,686,0,617,0C548.6,0,480,0,411,0C342.9,0,274,0,206,0C137.1,0,69,0,34,0L0,0Z"></path></svg>