<?xml version="1.0" standalone="no"?><svg xmlns="http://www.w3.org/2000/svg" viewBox="0 0 1440 320"><path fill="#0d6efd" fill-opacity="1" d="M0,256L34.3,234.7C68.6,213,137,171,206,133.3C274.3,96,343,64,411,42.7C480,21,549,11,617,58.7C685.7,107,754,213,823,229.3C891.4,245,960,171,1029,149.3C1097.1,128,1166,160,1234,192C1302.9,224,1371,256,1406,272L1440,288L1440,0L1405.7,0C1371.4,0,1303,0,1234,0C1165.7,0,1097,0,1029,0C960,0,891,0,823,0C754.3,0,686,0,617,0C548.6,0,480,0,411,0C342.9,0,274,0,206,0C137.1,0,69,0,34,0L0,0Z"></path></svg>